<svg xmlns="http://www.w3.org/2000/svg" width="22.851" height="20" viewBox="0 0 22.851 20">
  <g id="antenna_radiowaves_left_right" transform="translate(-10.706 -21.747)">
    <path id="Path_58" data-name="Path 58" d="M29.4,36.763a.882.882,0,0,0,1.356-.054,10.942,10.942,0,0,0,0-14.617.882.882,0,0,0-1.356-.054.955.955,0,0,0,.151,1.335,9.2,9.2,0,0,1,0,12.055A.955.955,0,0,0,29.4,36.763Zm-14.541,0a.966.966,0,0,0-.151-1.335,9.2,9.2,0,0,1,0-12.055.966.966,0,0,0,.151-1.335.894.894,0,0,0-1.367.054,10.974,10.974,0,0,0,0,14.617A.894.894,0,0,0,14.86,36.763ZM18.089,33.7c.344-.388.194-.872-.14-1.335a4.658,4.658,0,0,1-.969-2.96,4.855,4.855,0,0,1,.969-2.96c.334-.474.484-.947.14-1.335a.872.872,0,0,0-1.378.075,6.735,6.735,0,0,0,0,8.438A.872.872,0,0,0,18.089,33.7Zm8.073,0a.883.883,0,0,0,1.388-.075,6.773,6.773,0,0,0,0-8.438.883.883,0,0,0-1.388-.075c-.344.388-.194.861.14,1.335a4.855,4.855,0,0,1,.969,2.96,4.658,4.658,0,0,1-.969,2.96C25.968,32.824,25.817,33.308,26.162,33.7Zm-4.036,8.051a.82.82,0,0,0,.829-.926V31.156a1.932,1.932,0,1,0-1.647,0v9.666A.835.835,0,0,0,22.126,41.747Z" fill="#fff"/>
  </g>
</svg>
